<?xml version="1.0" encoding="UTF-8" standalone="no"?><!DOCTYPE svg PUBLIC "-//W3C//DTD SVG 1.1//EN" "http://www.w3.org/Graphics/SVG/1.1/DTD/svg11.dtd"><svg width="100%" height="100%" viewBox="0 0 785 302" version="1.1" xmlns="http://www.w3.org/2000/svg" xmlns:xlink="http://www.w3.org/1999/xlink" xml:space="preserve" xmlns:serif="http://www.serif.com/" style="fill-rule:evenodd;clip-rule:evenodd;stroke-linejoin:round;stroke-miterlimit:2;"><path d="M166.358,154.879c-15.396,-7.212 -24.904,-14.491 -29.263,-25.262c-0.895,-2.246 -2.491,-1.063 -3.858,5.729c-1.367,7.45 -4.429,15.146 -4.429,15.146c-14.208,30.642 -136.017,-12.792 -74.438,-99.871c16.95,-21.417 47.875,-34.7 82.738,-34.508c78.933,0.408 87.429,76.829 63.242,92.95l-8.917,-16.121c-0,0 -10.604,36.083 -13.154,47.541c-0.854,3.855 -1.821,6.321 -2.146,8.034c1.75,0.921 3.587,1.829 5.5,2.733c15.633,7.35 35.554,9.25 50.096,12.558c-0.984,-5.625 -3.675,-14.012 -1.675,-15.691c14.437,-13.171 19.108,-27.6 17.929,-42.95c-8.392,-59.408 -60.45,-105.167 -123.404,-105.167c-68.8,-0 -124.579,54.633 -124.579,122.025l0.091,-0c-1.441,35.908 14.809,67.842 34.213,84.138c25.283,21.237 66.696,30.341 66.696,30.341c-0,0 -11.288,21.938 -6.313,21.179c51.433,-7.825 130.1,-62.475 139.638,-81.929c-8.292,-11.246 -43.413,-9.316 -67.967,-20.875" style="fill:#a2bd39;fill-rule:nonzero;"/><path d="M461.318,242.929l-20.109,0l0,-18.92l20.109,0l0,18.92Zm-129.083,2.417c-9.742,-0 -14.471,6.042 -14.471,18.467c-0,12.541 4.729,18.621 14.471,18.621c9.758,-0 14.479,-6.08 14.479,-18.621c-0,-12.425 -4.721,-18.467 -14.479,-18.467m178.22,21.808c-0.6,0.305 -1.275,0.563 -1.991,0.792c-1.759,0.558 -4.296,1.163 -7.504,1.783c-4.721,0.921 -7.992,2.088 -9.659,3.442c-1.554,1.242 -2.287,3.025 -2.287,5.463c-0,2.754 0.812,5.941 7.008,5.941c2.05,-0 3.963,-0.333 5.688,-1.041c1.758,-0.696 3.262,-1.621 4.5,-2.784c1.262,-1.171 2.279,-2.558 3.05,-4.141c0.749,-1.546 1.124,-3.163 1.124,-4.9l0.071,-4.555Zm-49.137,30.867l-20.109,0l-0,-50.004l20.109,-0l-0,50.004Zm96.933,0l-18.742,0l0.001,-74.012l20.158,-0l-0,55.079l11.646,-0l0,18.896l-13.063,0.037Zm-226.067,1.729c-5.483,-0 -10.458,-0.879 -14.779,-2.637c-4.329,-1.738 -8.037,-4.246 -11.05,-7.409c-3.02,-3.137 -5.337,-7 -6.9,-11.454c-1.562,-4.4 -2.345,-9.279 -2.345,-14.483c-0,-5.308 0.808,-10.233 2.408,-14.663c1.621,-4.416 3.996,-8.279 7.042,-11.437c3.058,-3.158 6.762,-5.621 11.058,-7.333c4.267,-1.709 9.154,-2.571 14.567,-2.571c5.283,-0 10.125,0.862 14.362,2.571c4.25,1.712 7.921,4.162 10.908,7.283c3.009,3.087 5.363,6.917 6.967,11.383c1.617,4.392 2.417,9.367 2.417,14.767c-0,5.375 -0.8,10.346 -2.417,14.712c-1.604,4.38 -3.942,8.2 -6.967,11.367c-2.995,3.171 -6.7,5.638 -10.987,7.35c-4.267,1.692 -9.092,2.554 -14.283,2.554m70.712,-0c-4.608,-0 -8.871,-0.771 -12.704,-2.296c-3.875,-1.545 -7.267,-3.908 -10.067,-7.037c-2.783,-3.096 -4.962,-6.975 -6.471,-11.554c-1.512,-4.525 -2.279,-9.854 -2.279,-15.838c-0,-6 0.767,-11.266 2.279,-15.662c1.525,-4.429 3.713,-8.125 6.53,-10.988c2.8,-2.85 6.225,-5 10.179,-6.4c3.921,-1.387 8.333,-2.066 13.079,-2.066c4.391,-0 8.437,0.575 12.1,1.775c3.679,1.233 6.908,3.004 9.692,5.337c2.712,2.346 4.941,5.183 6.52,8.438c1.588,3.279 2.53,6.941 2.809,10.937l0.129,1.483l-20.2,-0l-0.146,-1.2c-0.417,-3.054 -1.571,-5.362 -3.596,-7.054c-2.029,-1.716 -4.479,-2.546 -7.437,-2.546c-1.696,-0 -3.259,0.267 -4.713,0.83c-1.391,0.55 -2.596,1.429 -3.608,2.737c-1.096,1.283 -1.958,3.113 -2.625,5.375c-0.679,2.292 -1.029,5.196 -1.029,8.592c-0,6.871 1.221,11.991 3.608,15.179c2.317,3.146 4.883,4.642 7.838,4.642c3.075,-0 5.637,-0.821 7.779,-2.513c2.125,-1.629 3.321,-3.958 3.629,-7.167l0.137,-1.237l20.271,-0l-0.154,1.546c-0.471,3.983 -1.625,7.65 -3.458,10.912c-1.809,3.242 -4.125,6.071 -6.917,8.388c-2.783,2.333 -6.004,4.154 -9.554,5.458c-3.558,1.275 -7.463,1.929 -11.621,1.929m89.25,-0c-7.887,-0 -13.787,-1.808 -17.546,-5.383c-3.791,-3.583 -5.712,-8.283 -5.712,-14.004c-0,-4.917 0.846,-8.917 2.441,-11.917c1.642,-3.029 3.896,-5.421 6.771,-7.146c2.792,-1.658 6.142,-2.916 9.967,-3.696c3.712,-0.758 7.787,-1.462 12.175,-2.104c5.121,-0.712 7.292,-1.612 8.221,-2.216c1.104,-0.771 1.658,-2.009 1.658,-3.88c-0,-1.629 -0.746,-2.829 -2.35,-3.8c-1.767,-1.054 -4.242,-1.587 -7.342,-1.587c-3.595,-0 -6.15,0.746 -7.616,2.233c-1.521,1.571 -2.484,3.642 -2.888,6.317l-0.179,1.192l-18.767,-0l0.046,-1.45c0.109,-3.484 0.679,-6.784 1.75,-9.763c1.117,-3.046 2.892,-5.708 5.325,-7.896c2.4,-2.175 5.559,-3.841 9.384,-5.037c3.758,-1.138 8.37,-1.704 13.712,-1.704c5.246,-0 9.796,0.575 13.517,1.775c3.775,1.233 6.875,3.041 9.196,5.354c2.32,2.329 4.037,5.266 5.079,8.716c1,3.355 1.512,7.192 1.512,11.392l-0,42.875l-18.433,-0l-0.3,-0.958c-0.308,-1.038 -0.571,-2.142 -0.775,-3.342c-1.854,1.542 -4.042,2.833 -6.575,3.875c-3.533,1.429 -7.642,2.154 -12.271,2.154m-234.675,1.338c-13.146,-0 -23.212,-2.629 -29.917,-7.821c-6.804,-5.267 -10.441,-13.083 -10.816,-23.25l-0.05,-1.433l20.687,-0l0.017,1.35c0.092,4.116 1.7,7.258 4.95,9.633c3.342,2.425 7.625,3.667 12.725,3.667c5.558,-0 9.767,-0.984 12.542,-2.938c2.67,-1.883 3.933,-4.325 3.933,-7.517c-0,-1.287 -0.158,-2.462 -0.467,-3.516c-0.283,-0.979 -0.862,-1.871 -1.7,-2.667c-0.912,-0.862 -2.179,-1.654 -3.783,-2.329c-1.708,-0.713 -3.971,-1.396 -6.725,-1.992c-6.754,-1.404 -12.683,-2.879 -17.675,-4.341c-5.067,-1.509 -9.308,-3.409 -12.638,-5.638c-3.383,-2.3 -5.916,-5.158 -7.55,-8.479c-1.604,-3.267 -2.404,-7.467 -2.404,-12.442c-0,-3.804 0.725,-7.446 2.125,-10.804c1.409,-3.371 3.604,-6.354 6.521,-8.842c2.879,-2.445 6.467,-4.42 10.675,-5.829c4.183,-1.433 9.179,-2.187 14.821,-2.154c12.687,0.054 20.546,3.388 26.325,8.254c3.192,2.704 5.746,5.917 7.521,9.684c1.766,3.741 2.758,7.954 2.954,12.47l0.05,1.442l-20.338,-0l-0.125,-1.254c-0.437,-4.179 -1.862,-7.171 -4.425,-9.163c-2.595,-2.012 -6.616,-3.05 -11.962,-3.05c-14.379,-0 -14.379,7.1 -14.379,9.43c-0,2.141 0.879,3.887 2.75,5.354c2.008,1.608 5.346,2.975 9.958,4.087c5.592,1.292 10.596,2.571 14.854,3.738c4.246,1.171 8.171,2.554 11.679,4.062c2.009,0.829 3.971,1.884 5.775,3.134c1.859,1.291 3.45,2.92 4.779,4.841c1.292,1.884 2.317,4.184 3.059,6.779c0.758,2.6 1.125,5.788 1.125,9.471c-0,4.479 -0.954,8.513 -2.833,11.996c-1.871,3.442 -4.421,6.408 -7.584,8.783c-3.141,2.359 -6.896,4.18 -11.133,5.421c-4.2,1.242 -8.683,1.863 -13.321,1.863" style="fill:#713579;fill-rule:nonzero;"/><path d="M409.888,155.709l23.771,0c-0.179,-1.641 -0.521,-3.129 -1.075,-4.408c-0.666,-1.638 -1.587,-3.008 -2.658,-4.063c-1.117,-1.075 -2.388,-1.858 -3.796,-2.37c-1.421,-0.509 -2.946,-0.771 -4.458,-0.771c-3.125,-0 -5.729,1.108 -8.034,3.387c-1.983,2 -3.254,4.775 -3.75,8.225m339.667,-10.683c-9.758,-0 -14.504,6.05 -14.504,18.475c-0,12.525 4.746,18.617 14.504,18.617c9.725,0 14.483,-6.092 14.483,-18.617c-0,-12.425 -4.758,-18.475 -14.483,-18.475m-72.958,0.121c-9.109,-0 -13.525,6.192 -13.525,18.887c-0,5.53 1.283,10.084 3.85,13.509c2.504,3.341 5.621,4.996 9.558,4.996c3.771,-0 6.854,-1.55 9.392,-4.709c2.579,-3.2 3.891,-7.475 3.891,-12.721c-0,-13.433 -4.312,-19.962 -13.166,-19.962m-59.692,21.671c-0.612,0.325 -1.271,0.591 -2.004,0.808c-1.742,0.546 -4.263,1.146 -7.496,1.775c-4.712,0.938 -7.958,2.083 -9.658,3.458c-1.521,1.242 -2.271,3.013 -2.271,5.434c-0,2.783 0.783,5.971 7,5.971c2.033,-0 3.954,-0.367 5.704,-1.042c1.708,-0.683 3.229,-1.633 4.492,-2.804c1.262,-1.159 2.271,-2.554 3.029,-4.134c0.737,-1.529 1.121,-3.195 1.121,-4.916l0.083,-4.55Zm-232.487,30.891l-19.721,-0l-0,-41.133c-0,-3.692 -0.846,-6.688 -2.521,-8.913c-1.613,-2.137 -3.688,-3.191 -6.358,-3.191c-2.775,-0 -5.013,1.15 -6.834,3.479c-1.879,2.413 -2.841,5.479 -2.841,9.167l-0,40.591l-20.117,-0l-0,-40.875c-0,-2.545 -0.163,-4.65 -0.504,-6.266c-0.317,-1.434 -0.821,-2.575 -1.488,-3.363c-0.687,-0.775 -1.55,-1.321 -2.629,-1.65c-1.196,-0.35 -2.662,-0.529 -4.412,-0.529c-3.896,-0 -9.13,1.179 -9.13,11.408l-0,41.263l-20.108,-0l-0,-68.404l19.042,-0l-0,6.037c1.775,-2.416 3.766,-4.187 5.962,-5.325c3.313,-1.691 7.292,-2.575 11.834,-2.575c2.32,-0 4.429,0.204 6.225,0.567c1.9,0.4 3.625,1.067 5.112,2.008c1.496,0.917 2.896,2.088 4.25,3.538c0.846,0.9 1.708,1.975 2.554,3.141c1.759,-2.895 3.938,-5.112 6.542,-6.583c3.133,-1.771 6.958,-2.671 11.346,-2.671c3.45,-0 6.671,0.6 9.596,1.763c2.92,1.187 5.458,2.879 7.533,5.008c2.067,2.121 3.729,4.625 4.892,7.45c1.179,2.821 1.775,5.888 1.775,9.083l-0,46.975Zm97.395,-0l-20.1,-0l-0,-68.4l19.042,-0l-0,5.005c0.733,-0.809 1.454,-1.521 2.204,-2.125c1.654,-1.338 3.379,-2.367 5.15,-3.113c1.759,-0.708 3.559,-1.179 5.367,-1.367c1.733,-0.191 3.546,-0.258 5.362,-0.258l3.663,-0l-0,20.896l-1.613,-0.283c-1.529,-0.242 -3.075,-0.376 -4.583,-0.376c-9.879,0.001 -14.492,4.609 -14.492,14.484l-0,35.537Zm-58.545,1.713c-22.688,-0 -34.205,-12.479 -34.205,-37.121c-0,-5.204 0.759,-9.979 2.23,-14.2c1.458,-4.258 3.654,-7.95 6.495,-11.025c2.846,-3.067 6.338,-5.454 10.45,-7.071c4.05,-1.617 8.746,-2.429 13.971,-2.429c10.521,-0 18.629,3.442 24.088,10.258c5.387,6.692 8.116,16.871 8.116,30.213l-0,1.362l-45.104,-0c0.417,3.984 1.717,7.18 3.867,9.563c2.358,2.662 5.412,3.946 9.308,3.946c2.567,-0 4.875,-0.6 6.838,-1.742c1.862,-1.087 3.021,-2.596 3.55,-4.575l0.283,-1.017l20.792,-0l-0.529,1.792c-2.121,7.038 -5.909,12.529 -11.196,16.333c-5.292,3.8 -11.663,5.713 -18.954,5.713m115.925,-0c-4.588,-0 -8.896,-0.75 -12.725,-2.296c-3.9,-1.542 -7.263,-3.896 -10.075,-7.021c-2.775,-3.125 -4.975,-7.008 -6.471,-11.562c-1.513,-4.517 -2.263,-9.85 -2.263,-15.842c-0,-5.983 0.75,-11.25 2.263,-15.654c1.529,-4.438 3.696,-8.142 6.525,-11.004c2.783,-2.842 6.216,-4.984 10.191,-6.392c3.905,-1.379 8.317,-2.075 13.067,-2.075c4.404,-0 8.479,0.613 12.125,1.808c3.646,1.205 6.904,2.988 9.646,5.317c2.767,2.358 4.962,5.183 6.567,8.454c1.57,3.263 2.525,6.917 2.783,10.913l0.104,1.483l-20.171,-0l-0.171,-1.2c-0.391,-3.05 -1.562,-5.367 -3.583,-7.062c-2.017,-1.709 -4.458,-2.538 -7.429,-2.538c-1.675,-0 -3.271,0.283 -4.721,0.846c-1.358,0.529 -2.571,1.45 -3.612,2.717c-1.067,1.308 -1.938,3.116 -2.588,5.379c-0.7,2.291 -1.025,5.191 -1.025,8.608c-0,6.846 1.213,11.963 3.596,15.167c2.312,3.121 4.867,4.65 7.812,4.65c3.092,-0 5.659,-0.829 7.821,-2.504c2.084,-1.638 3.263,-3.992 3.604,-7.192l0.117,-1.246l20.313,-0l-0.196,1.55c-0.475,3.983 -1.621,7.671 -3.442,10.938c-1.808,3.237 -4.137,6.066 -6.921,8.383c-2.775,2.3 -5.987,4.142 -9.546,5.433c-3.554,1.304 -7.47,1.942 -11.595,1.942m59.4,-0c-7.888,-0 -13.788,-1.792 -17.538,-5.367c-3.792,-3.587 -5.704,-8.312 -5.704,-14.004c-0,-4.958 0.821,-8.946 2.442,-11.929c1.62,-3.013 3.887,-5.421 6.779,-7.146c2.775,-1.687 6.133,-2.917 9.954,-3.712c3.733,-0.755 7.833,-1.467 12.162,-2.071c5.138,-0.729 7.292,-1.617 8.213,-2.254c1.117,-0.755 1.646,-2.013 1.646,-3.842c-0,-1.642 -0.734,-2.858 -2.305,-3.821c-1.774,-1.046 -4.266,-1.596 -7.366,-1.596c-3.588,-0 -6.134,0.754 -7.609,2.263c-1.52,1.554 -2.495,3.662 -2.879,6.279l-0.187,1.187l-18.75,-0l0.041,-1.408c0.071,-3.521 0.667,-6.796 1.734,-9.767c1.104,-3.045 2.887,-5.716 5.329,-7.895c2.4,-2.184 5.567,-3.884 9.367,-5.046c3.758,-1.146 8.375,-1.734 13.72,-1.734c5.259,-0 9.813,0.63 13.534,1.8c3.766,1.23 6.858,3.034 9.179,5.342c2.329,2.342 4.012,5.279 5.054,8.738c1.025,3.35 1.529,7.2 1.529,11.404l0,42.854l-18.416,-0l-0.309,-0.967c-0.308,-1.016 -0.587,-2.146 -0.771,-3.346c-1.841,1.563 -4.062,2.846 -6.579,3.867c-3.521,1.463 -7.658,2.171 -12.271,2.171m73.884,-0c-4.367,-0 -8.413,-0.85 -12.042,-2.513c-3.662,-1.683 -6.837,-4.145 -9.433,-7.304c-2.588,-3.166 -4.654,-7.033 -6.134,-11.533c-1.433,-4.479 -2.183,-9.6 -2.183,-15.246c-0,-5.075 0.621,-9.808 1.846,-14.046c1.254,-4.291 3.112,-8.05 5.496,-11.2c2.458,-3.179 5.441,-5.679 8.966,-7.391c3.5,-1.75 7.546,-2.613 12.005,-2.613c7.216,-0 13.275,2.613 18.1,7.754l-0,-30.029l19.833,-0l-0,92.396l-19.413,-0l-0.095,-5.271c-4.142,4.642 -9.838,6.996 -16.946,6.996m77.004,-0c-5.475,-0 -10.442,-0.867 -14.779,-2.617c-4.321,-1.766 -8.042,-4.266 -11.059,-7.425c-3.004,-3.15 -5.325,-7.004 -6.895,-11.471c-1.546,-4.4 -2.342,-9.262 -2.342,-14.479c-0,-5.321 0.812,-10.229 2.417,-14.629c1.612,-4.442 3.962,-8.3 7.033,-11.462c3.033,-3.138 6.779,-5.621 11.058,-7.334c4.28,-1.716 9.18,-2.575 14.567,-2.575c5.283,-0 10.133,0.859 14.354,2.575c4.25,1.713 7.913,4.159 10.921,7.288c3.004,3.096 5.358,6.937 6.967,11.379c1.612,4.404 2.416,9.371 2.416,14.758c-0,5.409 -0.804,10.342 -2.416,14.713c-1.609,4.4 -3.963,8.225 -6.95,11.362c-3.025,3.163 -6.704,5.629 -11.009,7.367c-4.258,1.7 -9.075,2.55 -14.283,2.55" style="fill:#713579;fill-rule:nonzero;"/></svg>