<?xml version="1.0" encoding="UTF-8" standalone="no"?><!DOCTYPE svg PUBLIC "-//W3C//DTD SVG 1.1//EN" "http://www.w3.org/Graphics/SVG/1.1/DTD/svg11.dtd"><svg width="100%" height="100%" viewBox="0 0 766 448" version="1.1" xmlns="http://www.w3.org/2000/svg" xmlns:xlink="http://www.w3.org/1999/xlink" xml:space="preserve" xmlns:serif="http://www.serif.com/" style="fill-rule:evenodd;clip-rule:evenodd;stroke-linejoin:round;stroke-miterlimit:2;"><path d="M0,438.051c4.147,0.101 8.298,0.597 12.443,0.5c18.535,0.983 36.996,4.156 54.829,9.448l-67.272,-0l0,-9.949l0,0.001Zm0,-47.812c2.196,-0.018 4.387,0.059 6.55,0.465c4.124,0.337 8.335,-0.454 12.406,0.534c3.495,-0.109 6.917,0.717 10.418,0.548c5.914,1.172 12.04,1.406 17.955,2.73c19.446,3.198 38.468,8.759 56.767,16.054c23.409,9.429 45.51,22.092 65.563,37.43l-35.391,0c-32.278,-19.558 -68.814,-32.084 -106.356,-36.112c-4.394,-0.6 -8.817,-0.571 -13.21,-1.134c-4.9,0.217 -9.807,-0.397 -14.702,-0.506l0,-20.009Zm0,-43.941c3.173,0.022 6.349,0.249 9.489,0.575c3.377,0.147 6.814,-0.409 10.148,0.323c14.036,0.695 28.035,2.707 41.897,5.136c18.429,3.944 36.712,8.854 54.251,15.813c27.173,10.31 52.775,24.645 76.177,41.87c10.973,8.085 21.295,16.997 31.252,26.268c3.751,4.005 7.954,7.625 11.597,11.717l-28.457,0c-32.801,-30.572 -72.41,-53.841 -115.176,-67.357c-23.372,-7.442 -47.717,-11.95 -72.177,-13.442c-5.008,-0.9 -10.148,0.241 -15.148,-0.673c-1.287,-0.144 -2.571,-0.185 -3.853,-0.167l0,-20.063Zm-0,-45.785c1.663,-0.058 3.326,-0.079 4.913,0.415c5.001,0.366 10.066,-0.373 15.03,0.417c67.47,3.3 133.887,26.233 189.374,64.825c10.702,7.331 20.901,15.365 30.807,23.751c3.918,3.695 8.268,6.9 11.938,10.867c7.633,6.49 14.226,14.086 21.128,21.3c7.494,8.348 14.6,17.052 21.496,25.912l-25.575,0c-3.166,-3.848 -6.441,-7.601 -9.797,-11.278c-2.303,-3.212 -5.658,-5.481 -7.917,-8.722c-35.924,-37.099 -79.934,-66.544 -128.301,-84.727c-23.774,-9.116 -48.623,-15.395 -73.809,-19.076c-3.896,-0.395 -7.734,-1.332 -11.666,-1.303c-5.616,-0.95 -11.304,-1.229 -16.976,-1.528c-4.73,-0.791 -9.563,0.036 -14.314,-0.462c-2.085,-0.413 -4.206,-0.451 -6.331,-0.418l0,-19.973Zm765.999,0l0,19.973c-1.482,0.022 -2.966,0.079 -4.438,0.067c-4.32,0.893 -8.758,0.344 -13.136,0.476c-5.835,0.702 -11.727,0.592 -17.553,1.456c-15.725,1.507 -31.326,4.207 -46.686,7.895c-44.675,10.706 -86.96,30.659 -124.104,57.646c-0.425,0.366 -0.849,0.739 -1.272,1.106c-1.609,0.965 -2.969,2.29 -4.555,3.299c-10.44,8.24 -20.784,16.625 -30.105,26.108c-3.627,2.898 -6.938,6.205 -9.818,9.842c-6.319,6.141 -12.043,12.833 -17.663,19.619l-25.58,0c6.662,-8.663 13.464,-17.247 20.945,-25.21c2.75,-3.782 6.726,-6.482 9.416,-10.324c3.21,-3.103 6.119,-6.549 9.687,-9.249c8.049,-8.02 16.764,-15.315 25.572,-22.501c24.944,-19.713 52.352,-36.338 81.463,-49.121c38.117,-16.756 79.173,-26.884 120.669,-29.884c2.602,-0.556 5.314,0.124 7.917,-0.548c5.401,-0.519 10.892,0.344 16.273,-0.608c0.977,0.041 1.973,-0.008 2.968,-0.042Zm-235.096,147.487c12.584,-13.276 26.311,-25.465 40.883,-36.545c50.092,-37.735 111.354,-60.615 173.941,-64.223c3.786,-0.806 7.683,-0.161 11.521,-0.388c2.895,-0.411 5.822,-0.565 8.751,-0.546l0,20.063c-4.397,0.06 -8.773,0.815 -13.189,0.504c-39.674,1.603 -79.1,11.341 -115.134,28.163c-3.238,1.545 -6.352,3.374 -9.694,4.691c-1.842,1.251 -3.963,2.012 -5.834,3.213c-21.69,11.59 -41.765,26.093 -60.071,42.491c-0.849,0.862 -1.674,1.753 -2.562,2.577l-28.612,0Zm235.096,-57.761l0,20.009c-2.661,-0.059 -5.319,0.031 -7.968,0.484c-11.09,-0.088 -22.093,1.288 -33.066,2.919c-33.009,5.209 -64.902,17.034 -93.469,34.349l-35.422,0c31.28,-24.08 67.786,-41.231 106.176,-50.308c14.775,-3.329 29.828,-5.751 44.939,-6.564c4.438,-1.046 9.131,0.352 13.517,-0.782c1.76,-0.017 3.528,-0.093 5.293,-0.107Zm-67.579,57.761c7.2,-2.144 14.501,-3.943 21.873,-5.387c12.648,-2.4 25.456,-4.054 38.316,-4.113c2.459,-0.428 4.923,-0.509 7.39,-0.449l0,9.949l-67.579,0Zm-698.419,-203.181l13.869,-0c0.372,0.103 1.11,0.3 1.483,0.403c49.836,1.727 99.424,12.432 145.554,31.478c46.167,18.967 88.853,46.341 125.647,80.059c29.059,26.73 54.377,57.743 75.132,91.373l-23.361,-0.132c-1.843,-2.056 -3.675,-5.255 -5.261,-7.523c-46.635,-67.81 -114.308,-120.905 -191.348,-149.83c-35.536,-13.441 -73.032,-21.666 -110.908,-24.571c-6.112,-0.703 -12.261,-0.403 -18.357,-1.163c-4.149,0.017 -8.3,-0.007 -12.45,-0.017l0,-20.077Zm765.999,-0l0,20.077c-4.589,-0.011 -9.179,-0.006 -13.766,0.089c-3.859,0.77 -7.807,0.139 -11.675,0.762c-73.984,4.361 -146.527,30.022 -207.007,72.872c-41.488,29.277 -78.114,66.882 -105.982,109.381l-23.452,0c0.629,-1.566 1.637,-3.199 2.618,-4.56c13.634,-21.645 29.33,-41.979 46.582,-60.851c2.201,-1.924 3.977,-4.251 5.922,-6.417c4.81,-4.727 9.496,-9.601 14.358,-14.277c3.18,-2.392 5.629,-5.575 8.772,-8.012c44.354,-39.922 97.122,-70.524 153.969,-88.7c17.904,-5.787 36.202,-10.472 54.756,-13.566c16.719,-3.212 33.717,-4.969 50.685,-6.022c3.399,-0.593 6.937,0.365 10.264,-0.776l13.956,-0Zm-397.399,147.68c4.518,-3.337 10.52,-3.753 15.915,-4.566c1.177,-0.308 2.347,0.286 3.524,0.359c5.022,-0.198 10.045,1.273 14.453,3.644c0.315,0.987 -0.622,1.69 -1.045,2.466c-5.198,7.266 -10.009,14.802 -15.133,22.119c-0.264,0.051 -0.804,0.14 -1.067,0.191c-3.948,-6.058 -8.196,-11.913 -12.129,-17.978c-1.484,-2.101 -2.69,-4.413 -4.518,-6.235Zm-22.648,-33.901c16.632,-6.718 35.128,-9.622 52.871,-6.907c9.079,0.607 17.903,3.622 26.333,6.688c-0.081,1.704 -1.748,2.868 -2.815,4.06c-4.16,3.74 -7.238,8.482 -11.346,12.264c-16.253,-5.4 -34.294,-5.319 -50.546,0c-2.296,-2.07 -3.991,-4.675 -6.251,-6.768c-2.434,-3.395 -5.899,-5.861 -8.246,-9.337Zm28.848,-53.401c5.373,-0.667 10.827,-0.111 16.237,-0.294c4.679,-0.292 9.261,0.93 13.933,1.018c10.996,1.712 22.005,3.922 32.379,8.042c7.295,2.509 14.35,5.729 21.047,9.586c0.994,0.57 2.398,0.855 2.763,2.121c-3.025,1.895 -5.365,4.72 -8.304,6.732c-2.413,2.422 -4.956,4.705 -7.626,6.849c-27.634,-14.722 -60.728,-18.11 -91.002,-10.675c-9.751,2.523 -19.24,6.095 -28.234,10.632c-5.284,-4.647 -10.366,-9.564 -15.944,-13.882c19.579,-11.707 42.036,-18.49 64.75,-20.129l0.001,-0Zm4.548,-39.821c6.039,-1.427 12.106,0.336 18.182,-0.007c34.718,2.232 68.96,13.968 97.26,34.354c-4.431,3.695 -9.446,6.666 -14.001,10.222c-0.957,0.74 -1.929,1.449 -2.909,2.159c-7.479,-4.178 -14.702,-8.891 -22.677,-12.125c-12.29,-5.503 -25.229,-9.586 -38.462,-12.059c-8.517,-1.419 -17.113,-2.788 -25.761,-2.554c-2.509,-0.183 -5.009,-0.871 -7.524,-0.351c-3.537,0.746 -7.172,0.088 -10.739,0.433c-4.832,0.826 -9.767,0.898 -14.57,1.887c-13.21,2.216 -26.186,5.92 -38.49,11.224c-4.921,1.954 -9.731,4.186 -14.278,6.923c-4.167,1.844 -7.69,4.917 -11.945,6.578c-5.338,-4.193 -10.886,-8.107 -16.5,-11.912c0.169,-0.301 0.505,-0.9 0.672,-1.201c12.091,-8.275 25.01,-15.373 38.666,-20.707c6.163,-2.613 12.633,-4.347 18.964,-6.447c7.742,-1.888 15.506,-3.732 23.416,-4.786c6.857,-0.937 13.758,-1.822 20.696,-1.631Zm-39.149,-43.773c12.647,-2.399 25.456,-4.054 38.315,-4.112c6.595,-1.149 13.226,0.205 19.834,0.051c28.84,1.53 57.498,8.364 83.889,20.219c20.36,8.941 39.2,21.161 56.313,35.335c-0.007,0.197 -0.036,0.607 -0.043,0.811c-5.285,2.686 -10.498,5.518 -15.609,8.518c-0.971,0.497 -1.951,1.303 -3.084,1.266c-32.189,-25.501 -71.834,-41.548 -112.701,-45.44c-3.413,-0.176 -6.798,-0.827 -10.227,-0.645c-2.485,0.198 -4.861,-0.841 -7.347,-0.555c-4.065,0.219 -8.181,-0.403 -12.194,0.394c-45.07,1.413 -89.526,17.877 -125.004,45.748c-1.404,0.863 -2.887,-0.263 -4.079,-0.959c-5.102,-3.16 -10.644,-5.612 -15.689,-8.839c1.024,-0.79 2.026,-1.616 2.997,-2.466c1.068,-0.776 2.07,-1.632 3.137,-2.407c29.388,-23.54 64.56,-39.682 101.493,-46.919l-0.001,0Zm26.895,-51.484c4.438,-1.046 9.131,0.352 13.517,-0.783c3.948,-0.037 7.941,-0.374 11.843,0.359c4.124,0.337 8.335,-0.454 12.407,0.533c3.495,-0.109 6.915,0.718 10.417,0.549c5.915,1.171 12.041,1.405 17.955,2.73c19.446,3.197 38.469,8.758 56.767,16.054c30.814,12.409 59.362,30.425 83.948,52.765c3.852,3.381 7.515,7.047 10.885,10.903c-6.77,2.466 -13.312,5.51 -20.083,7.947c-1.322,-1.414 -2.696,-2.773 -4.232,-3.952c-1.966,-1.507 -3.37,-3.651 -5.52,-4.932c-39.448,-34.098 -89.357,-55.853 -141.183,-61.414c-4.392,-0.6 -8.815,-0.57 -13.209,-1.134c-7.559,0.337 -15.14,-1.31 -22.671,-0.022c-11.089,-0.087 -22.092,1.288 -33.066,2.919c-41.64,6.571 -81.505,23.672 -115.162,49.041c-5.367,4.01 -10.506,8.312 -15.645,12.609c-2.456,2.509 -5.074,4.916 -7.954,6.921c-6.367,-2.935 -12.867,-5.584 -19.469,-7.917c7.626,-8.665 16.515,-16.164 25.544,-23.327c32.108,-25.648 70.021,-43.839 109.973,-53.286c14.775,-3.329 29.827,-5.751 44.938,-6.563Zm-1.461,-43.897c3.786,-0.804 7.683,-0.161 11.521,-0.388c6.031,-0.855 12.202,-0.6 18.24,0.029c3.377,0.147 6.813,-0.409 10.147,0.323c14.037,0.695 28.035,2.707 41.897,5.136c18.43,3.945 36.713,8.855 54.252,15.813c27.173,10.31 52.775,24.645 76.176,41.87c10.973,8.086 21.296,16.997 31.253,26.269c4.393,4.691 9.409,8.854 13.415,13.867c3.092,3.094 5.987,6.38 8.788,9.732c-5.593,1.317 -11.105,2.897 -16.632,4.434c-1.785,0.534 -3.714,1.646 -5.585,0.863c-2.288,-3.373 -5.512,-5.927 -8.276,-8.869c-34.367,-34.676 -77.186,-60.953 -123.747,-75.668c-23.372,-7.442 -47.716,-11.949 -72.178,-13.442c-5.007,-0.9 -10.147,0.242 -15.147,-0.673c-5.702,-0.636 -11.338,0.739 -17.041,0.337c-39.675,1.603 -79.101,11.342 -115.134,28.163c-3.239,1.545 -6.353,3.374 -9.694,4.691c-1.843,1.251 -3.962,2.013 -5.834,3.213c-21.691,11.591 -41.766,26.094 -60.072,42.491c-0.964,0.982 -1.9,1.998 -2.931,2.913c-4.291,3.453 -7.888,7.668 -11.873,11.459c-1.936,1.69 -3.333,3.863 -5.11,5.699c-0.899,-0.08 -1.783,-0.219 -2.653,-0.41c-6.411,-1.843 -12.802,-3.775 -19.322,-5.187c15.36,-17.964 32.773,-34.128 51.598,-48.441c50.092,-37.735 111.355,-60.616 173.942,-64.224Zm-6.887,-45.521c2.602,-0.556 5.315,0.125 7.917,-0.548c5.403,-0.519 10.893,0.344 16.273,-0.608c2.611,0.11 5.344,-0.416 7.881,0.373c5.001,0.366 10.067,-0.373 15.03,0.417c67.471,3.3 133.887,26.233 189.374,64.825c10.703,7.332 20.901,15.366 30.807,23.751c3.919,3.695 8.268,6.9 11.938,10.867c7.633,6.49 14.227,14.086 21.128,21.301c8.232,9.169 15.995,18.768 23.526,28.53c-6.361,0.534 -12.692,1.536 -18.978,2.649c-1.375,0.219 -2.794,0.68 -4.176,0.299c-4.509,-5.817 -9.291,-11.415 -14.248,-16.844c-2.303,-3.213 -5.658,-5.481 -7.917,-8.722c-35.924,-37.098 -79.934,-66.544 -128.301,-84.727c-23.774,-9.117 -48.623,-15.396 -73.807,-19.077c-3.897,-0.395 -7.735,-1.332 -11.668,-1.302c-5.615,-0.951 -11.303,-1.229 -16.976,-1.529c-4.73,-0.791 -9.562,0.036 -14.314,-0.461c-3.537,-0.703 -7.186,-0.322 -10.768,-0.352c-4.321,0.893 -8.759,0.345 -13.138,0.476c-5.833,0.703 -11.726,0.592 -17.552,1.456c-15.725,1.508 -31.326,4.207 -46.685,7.896c-44.676,10.705 -86.96,30.659 -124.105,57.645c-0.424,0.366 -0.848,0.74 -1.273,1.106c-1.607,0.966 -2.968,2.29 -4.554,3.299c-10.439,8.24 -20.784,16.625 -30.105,26.109c-3.625,2.897 -6.938,6.205 -9.818,9.841c-8.077,7.852 -15.184,16.603 -22.341,25.296c-7.472,-0.731 -14.862,-2.524 -22.371,-2.97c0.132,-0.367 0.388,-1.105 0.52,-1.471c6.967,-9.081 14.058,-18.104 21.895,-26.445c2.748,-3.783 6.725,-6.483 9.417,-10.324c3.208,-3.103 6.118,-6.55 9.686,-9.25c8.048,-8.02 16.762,-15.315 25.572,-22.501c24.944,-19.713 52.35,-36.337 81.462,-49.121c38.117,-16.756 79.173,-26.883 120.669,-29.884Zm13.203,-56.892l27.824,-0c0.372,0.103 1.111,0.301 1.484,0.403c49.836,1.727 99.423,12.432 145.554,31.478c46.166,18.968 88.853,46.342 125.647,80.059c29.059,26.73 54.486,57.441 75.241,91.072c-2.655,-0.015 -5.308,0.153 -7.94,-0.155c-5.264,-0.774 -10.608,0.03 -15.885,-0.46c-1.844,-2.056 -3.319,-4.47 -4.906,-6.739c-46.634,-67.809 -114.309,-120.904 -191.348,-149.829c-35.537,-13.442 -73.033,-21.666 -110.909,-24.572c-6.112,-0.702 -12.259,-0.402 -18.356,-1.163c-8.737,0.037 -17.48,-0.11 -26.217,0.073c-3.86,0.769 -7.807,0.138 -11.675,0.761c-73.983,4.361 -146.526,30.023 -207.006,72.872c-41.487,29.277 -77.587,66.237 -105.456,108.736c-5.783,0.147 -11.595,-0.395 -17.34,0.432c-2.179,0.139 -4.365,0.052 -6.55,-0c0.628,-1.566 1.549,-2.985 2.529,-4.347c13.634,-21.644 29.33,-41.979 46.583,-60.851c2.2,-1.924 3.977,-4.251 5.921,-6.417c4.811,-4.727 9.497,-9.601 14.358,-14.276c3.18,-2.393 5.629,-5.576 8.773,-8.012c44.353,-39.923 97.121,-70.525 153.968,-88.701c17.905,-5.787 36.203,-10.471 54.757,-13.566c16.72,-3.212 33.716,-4.968 50.685,-6.022c3.399,-0.593 6.937,0.365 10.264,-0.776Zm394.05,165.713c-0.239,0.041 -0.5,0.085 -0.658,0.117c-3.948,-6.06 -8.195,-11.913 -12.129,-17.979c-1.483,-2.1 -2.69,-4.412 -4.517,-6.234c4.517,-3.338 10.519,-3.754 15.914,-4.566c0.465,-0.121 0.927,-0.103 1.39,-0.031l-0,28.693Zm-765.999,-28.693c0.711,0.11 1.421,0.345 2.135,0.39c5.022,-0.198 10.044,1.272 14.452,3.644c0.315,0.987 -0.621,1.69 -1.045,2.465c-5.198,7.266 -10.009,14.803 -15.133,22.12c-0.105,0.021 -0.253,0.046 -0.409,0.074l0,-28.693Zm765.999,-17.219c-8.633,-0.009 -17.272,1.341 -25.456,4.02c-2.295,-2.072 -3.991,-4.675 -6.25,-6.769c-2.435,-3.395 -5.9,-5.861 -8.247,-9.337c12.625,-5.098 26.325,-8.001 39.953,-7.915l0,20.001Zm-765.999,-20.001c4.325,0.026 8.643,0.353 12.917,1.009c9.08,0.607 17.904,3.621 26.334,6.686c-0.081,1.706 -1.749,2.87 -2.815,4.062c-4.16,3.739 -7.238,8.481 -11.346,12.264c-8.067,-2.681 -16.576,-4.011 -25.09,-4.02l0,-20.001Zm0,-45.764c1.712,0.027 3.424,0.043 5.131,-0.015c4.679,-0.292 9.263,0.929 13.934,1.017c10.996,1.713 22.006,3.923 32.379,8.041c7.296,2.511 14.351,5.731 21.048,9.586c0.994,0.572 2.398,0.856 2.762,2.122c-3.026,1.896 -5.365,4.72 -8.304,6.733c-2.412,2.422 -4.957,4.704 -7.625,6.849c-18.197,-9.695 -38.762,-14.475 -59.325,-14.486l-0,-19.847Zm765.999,19.847c-10.671,-0.006 -21.339,1.271 -31.677,3.809c-9.752,2.525 -19.241,6.097 -28.234,10.633c-5.285,-4.647 -10.366,-9.563 -15.944,-13.881c19.578,-11.707 42.035,-18.491 64.75,-20.131c3.678,-0.455 7.392,-0.338 11.105,-0.277l0,19.847Zm-765.999,-59.937c3.867,0.12 7.744,0.759 11.624,0.54c34.718,2.231 68.96,13.969 97.26,34.354c-4.43,3.695 -9.446,6.666 -14,10.223c-0.958,0.739 -1.93,1.449 -2.91,2.158c-7.478,-4.178 -14.701,-8.89 -22.677,-12.125c-12.289,-5.502 -25.229,-9.585 -38.461,-12.058c-8.518,-1.42 -17.115,-2.788 -25.763,-2.554c-1.692,-0.123 -3.382,-0.477 -5.073,-0.534l0,-20.004Zm765.999,20.004c-0.816,-0.028 -1.631,0.014 -2.449,0.182c-3.539,0.747 -7.172,0.089 -10.74,0.432c-4.832,0.827 -9.766,0.9 -14.569,1.888c-13.211,2.217 -26.187,5.92 -38.491,11.225c-4.92,1.954 -9.73,4.185 -14.277,6.922c-4.167,1.844 -7.692,4.918 -11.946,6.578c-5.337,-4.192 -10.886,-8.106 -16.5,-11.913c0.168,-0.299 0.505,-0.899 0.673,-1.199c12.091,-8.276 25.01,-15.374 38.665,-20.708c6.164,-2.612 12.633,-4.346 18.964,-6.446c7.742,-1.889 15.506,-3.733 23.417,-4.786c6.856,-0.937 13.757,-1.822 20.696,-1.631c2.181,-0.517 4.367,-0.616 6.557,-0.548l0,20.004Zm-698.444,-57.758c9.814,2.923 19.437,6.49 28.777,10.686c20.36,8.942 39.199,21.161 56.314,35.334c-0.007,0.198 -0.037,0.608 -0.044,0.813c-5.286,2.686 -10.498,5.517 -15.608,8.518c-0.972,0.497 -1.952,1.303 -3.086,1.265c-32.187,-25.5 -71.833,-41.547 -112.699,-45.44c-3.414,-0.176 -6.8,-0.826 -10.228,-0.644c-2.486,0.197 -4.862,-0.841 -7.347,-0.556c-1.208,0.065 -2.42,0.056 -3.634,0.032l0,-10.008l67.555,0Zm698.444,10.008c-2.869,-0.057 -5.74,-0.198 -8.561,0.363c-45.07,1.413 -89.525,17.877 -125.004,45.747c-1.404,0.864 -2.888,-0.263 -4.079,-0.958c-5.103,-3.161 -10.645,-5.612 -15.689,-8.839c1.023,-0.791 2.026,-1.618 2.998,-2.466c1.067,-0.776 2.068,-1.632 3.136,-2.408c23.445,-18.78 50.573,-32.85 79.335,-41.447l67.864,0l0,10.008Zm-134.642,-10.008c-7.426,4.507 -14.623,9.381 -21.557,14.608c-5.365,4.01 -10.505,8.312 -15.644,12.607c-2.456,2.51 -5.074,4.917 -7.954,6.922c-6.368,-2.934 -12.867,-5.583 -19.468,-7.917c7.625,-8.664 16.514,-16.164 25.543,-23.327c1.22,-0.975 2.448,-1.939 3.687,-2.893l35.393,0Zm-461.588,0c6.302,4.825 12.401,9.915 18.275,15.251c3.852,3.382 7.515,7.047 10.886,10.904c-6.771,2.465 -13.313,5.509 -20.084,7.946c-1.322,-1.413 -2.697,-2.774 -4.232,-3.951c-1.967,-1.508 -3.37,-3.652 -5.519,-4.933c-10.833,-9.362 -22.454,-17.796 -34.687,-25.217l35.361,0Zm389.654,0c-0.091,0.085 -0.185,0.168 -0.278,0.251c-4.291,3.454 -7.888,7.669 -11.872,11.459c-1.937,1.69 -3.333,3.864 -5.11,5.7c-0.899,-0.08 -1.783,-0.22 -2.654,-0.41c-6.412,-1.843 -12.801,-3.775 -19.322,-5.187c3.444,-4.028 6.991,-7.966 10.635,-11.813l28.601,0Zm-324.537,0c0.598,0.674 1.181,1.362 1.744,2.067c3.092,3.094 5.987,6.379 8.786,9.731c-5.592,1.318 -11.104,2.897 -16.631,4.434c-1.783,0.534 -3.713,1.646 -5.585,0.864c-2.289,-3.373 -5.512,-5.928 -8.275,-8.869c-2.774,-2.799 -5.602,-5.542 -8.481,-8.227l28.442,0Zm59.866,0c0.657,0.843 1.311,1.688 1.963,2.535c-6.36,0.533 -12.691,1.536 -18.978,2.648c-1.374,0.22 -2.793,0.681 -4.174,0.3c-1.434,-1.85 -2.896,-3.676 -4.38,-5.483l25.569,0Zm201.847,0c-1.541,1.861 -3.074,3.728 -4.609,5.593c-7.471,-0.732 -14.862,-2.525 -22.37,-2.971c0.131,-0.366 0.388,-1.106 0.519,-1.47c0.295,-0.384 0.589,-0.769 0.884,-1.152l25.576,0Z" style="fill-rule:nonzero;"/></svg>